HIERARCHY
ROOT Hips
{
  OFFSET -0.175509 95.577 0.164376
  CHANNELS 6 Xposition Yposition Zposition Zrotation Xrotation Yrotation
  JOINT Spine
  {
    OFFSET 0 9.92346 -1.22733
    CHANNELS 6 Xposition Yposition Zposition Zrotation Xrotation Yrotation
    JOINT Spine1
    {
      OFFSET -0.000138865 11.6454 -1.42234
      CHANNELS 6 Xposition Yposition Zposition Zrotation Xrotation Yrotation
      JOINT Spine2
      {
        OFFSET 9.14407e-005 13.3602 -1.62646
        CHANNELS 6 Xposition Yposition Zposition Zrotation Xrotation Yrotation
        JOINT Neck
        {
          OFFSET 2.52021e-005 15.0325 0.792905
          CHANNELS 6 Xposition Yposition Zposition Zrotation Xrotation Yrotation
          JOINT Head
          {
            OFFSET 0 10.3218 3.14243
            CHANNELS 6 Xposition Yposition Zposition Zrotation Xrotation Yrotation
            End Site
            {
              OFFSET 0.000154173 18.4747 6.6364
            }
          }
        }
        JOINT LeftShoulder
        {
          OFFSET 6.10582 9.11042 0.705551
          CHANNELS 6 Xposition Yposition Zposition Zrotation Xrotation Yrotation
          JOINT LeftArm
          {
            OFFSET 12.655 -0.265934 -2.60092
            CHANNELS 6 Xposition Yposition Zposition Zrotation Xrotation Yrotation
            JOINT LeftForeArm
            {
              OFFSET 27.4047 3.91267e-005 0
              CHANNELS 6 Xposition Yposition Zposition Zrotation Xrotation Yrotation
              JOINT LeftHand
              {
                OFFSET 27.6145 2.89518e-005 1.96466e-005
                CHANNELS 6 Xposition Yposition Zposition Zrotation Xrotation Yrotation
                JOINT LeftHandMiddle1
                {
                  OFFSET 12.7755 1.3342e-005 2.04185e-005
                  CHANNELS 6 Xposition Yposition Zposition Zrotation Xrotation Yrotation
                  JOINT LeftHandMiddle2
                  {
                    OFFSET 3.61397 0 0
                    CHANNELS 6 Xposition Yposition Zposition Zrotation Xrotation Yrotation
                    JOINT LeftHandMiddle3
                    {
                      OFFSET 3.45976 0 -2.64197e-005
                      CHANNELS 6 Xposition Yposition Zposition Zrotation Xrotation Yrotation
                      End Site
                      {
                        OFFSET 3.68019 0 3.27692e-005
                      }
                    }
                  }
                }
                JOINT LeftHandThumb1
                {
                  OFFSET 3.78881 -2.167 3.00309
                  CHANNELS 6 Xposition Yposition Zposition Zrotation Xrotation Yrotation
                  JOINT LeftHandThumb2
                  {
                    OFFSET 3.67544 -2.12201 2.12201
                    CHANNELS 6 Xposition Yposition Zposition Zrotation Xrotation Yrotation
                    JOINT LeftHandThumb3
                    {
                      OFFSET 3.39436 -1.95974 1.95979
                      CHANNELS 6 Xposition Yposition Zposition Zrotation Xrotation Yrotation
                      End Site
                      {
                        OFFSET 2.6794 -1.54694 1.54692
                      }
                    }
                  }
                }
                JOINT LeftHandIndex1
                {
                  OFFSET 12.2666 -0.231669 2.82206
                  CHANNELS 6 Xposition Yposition Zposition Zrotation Xrotation Yrotation
                  JOINT LeftHandIndex2
                  {
                    OFFSET 3.89197 0 3.87215e-005
                    CHANNELS 6 Xposition Yposition Zposition Zrotation Xrotation Yrotation
                    JOINT LeftHandIndex3
                    {
                      OFFSET 3.41516 0 0
                      CHANNELS 6 Xposition Yposition Zposition Zrotation Xrotation Yrotation
                      End Site
                      {
                        OFFSET 3.07799 0 0
                      }
                    }
                  }
                }
                JOINT LeftHandRing1
                {
                  OFFSET 12.147 0.00989498 -2.21663
                  CHANNELS 6 Xposition Yposition Zposition Zrotation Xrotation Yrotation
                  JOINT LeftHandRing2
                  {
                    OFFSET 3.60119 0 3.51122e-005
                    CHANNELS 6 Xposition Yposition Zposition Zrotation Xrotation Yrotation
                    JOINT LeftHandRing3
                    {
                      OFFSET 3.30732 0 -2.08933e-005
                      CHANNELS 6 Xposition Yposition Zposition Zrotation Xrotation Yrotation
                      End Site
                      {
                        OFFSET 3.66012 0 0
                      }
                    }
                  }
                }
                JOINT LeftHandPinky1
                {
                  OFFSET 10.9082 -0.226365 -4.72582
                  CHANNELS 6 Xposition Yposition Zposition Zrotation Xrotation Yrotation
                  JOINT LeftHandPinky2
                  {
                    OFFSET 4.13665 0 2.68984e-005
                    CHANNELS 6 Xposition Yposition Zposition Zrotation Xrotation Yrotation
                    JOINT LeftHandPinky3
                    {
                      OFFSET 2.59484 0 -3.6009e-005
                      CHANNELS 6 Xposition Yposition Zposition Zrotation Xrotation Yrotation
                      End Site
                      {
                        OFFSET 2.92387 0 1.87321e-005
                      }
                    }
                  }
                }
              }
            }
          }
        }
        JOINT RightShoulder
        {
          OFFSET -6.1057 9.11051 0.705563
          CHANNELS 6 Xposition Yposition Zposition Zrotation Xrotation Yrotation
          JOINT RightArm
          {
            OFFSET -12.655 -0.266021 -2.6009
            CHANNELS 6 Xposition Yposition Zposition Zrotation Xrotation Yrotation
            JOINT RightForeArm
            {
              OFFSET -27.4047 3.28841e-005 0
              CHANNELS 6 Xposition Yposition Zposition Zrotation Xrotation Yrotation
              JOINT RightHand
              {
                OFFSET -27.6145 2.26615e-005 1.83241e-005
                CHANNELS 6 Xposition Yposition Zposition Zrotation Xrotation Yrotation
                JOINT RightHandMiddle1
                {
                  OFFSET -12.7755 0 1.80116e-005
                  CHANNELS 6 Xposition Yposition Zposition Zrotation Xrotation Yrotation
                  JOINT RightHandMiddle2
                  {
                    OFFSET -3.61397 0 0
                    CHANNELS 6 Xposition Yposition Zposition Zrotation Xrotation Yrotation
                    JOINT RightHandMiddle3
                    {
                      OFFSET -3.45976 0 -2.64579e-005
                      CHANNELS 6 Xposition Yposition Zposition Zrotation Xrotation Yrotation
                      End Site
                      {
                        OFFSET -3.68019 0 3.25098e-005
                      }
                    }
                  }
                }
                JOINT RightHandThumb1
                {
                  OFFSET -3.78881 -2.167 3.00309
                  CHANNELS 6 Xposition Yposition Zposition Zrotation Xrotation Yrotation
                  JOINT RightHandThumb2
                  {
                    OFFSET -3.67544 -2.12201 2.12201
                    CHANNELS 6 Xposition Yposition Zposition Zrotation Xrotation Yrotation
                    JOINT RightHandThumb3
                    {
                      OFFSET -3.39436 -1.95975 1.95979
                      CHANNELS 6 Xposition Yposition Zposition Zrotation Xrotation Yrotation
                      End Site
                      {
                        OFFSET -2.6794 -1.54695 1.54692
                      }
                    }
                  }
                }
                JOINT RightHandIndex1
                {
                  OFFSET -12.2666 -0.231673 2.82206
                  CHANNELS 6 Xposition Yposition Zposition Zrotation Xrotation Yrotation
                  JOINT RightHandIndex2
                  {
                    OFFSET -3.89197 0 3.7513e-005
                    CHANNELS 6 Xposition Yposition Zposition Zrotation Xrotation Yrotation
                    JOINT RightHandIndex3
                    {
                      OFFSET -3.41516 0 0
                      CHANNELS 6 Xposition Yposition Zposition Zrotation Xrotation Yrotation
                      End Site
                      {
                        OFFSET -3.07799 0 0
                      }
                    }
                  }
                }
                JOINT RightHandRing1
                {
                  OFFSET -12.147 0.0098909 -2.21663
                  CHANNELS 6 Xposition Yposition Zposition Zrotation Xrotation Yrotation
                  JOINT RightHandRing2
                  {
                    OFFSET -3.60119 0 3.4867e-005
                    CHANNELS 6 Xposition Yposition Zposition Zrotation Xrotation Yrotation
                    JOINT RightHandRing3
                    {
                      OFFSET -3.30732 0 -2.11146e-005
                      CHANNELS 6 Xposition Yposition Zposition Zrotation Xrotation Yrotation
                      End Site
                      {
                        OFFSET -3.66012 0 0
                      }
                    }
                  }
                }
                JOINT RightHandPinky1
                {
                  OFFSET -10.9082 -0.226369 -4.72582
                  CHANNELS 6 Xposition Yposition Zposition Zrotation Xrotation Yrotation
                  JOINT RightHandPinky2
                  {
                    OFFSET -4.13665 0 2.56096e-005
                    CHANNELS 6 Xposition Yposition Zposition Zrotation Xrotation Yrotation
                    JOINT RightHandPinky3
                    {
                      OFFSET -2.59484 0 -3.66612e-005
                      CHANNELS 6 Xposition Yposition Zposition Zrotation Xrotation Yrotation
                      End Site
                      {
                        OFFSET -2.92387 0 1.86957e-005
                      }
                    }
                  }
                }
              }
            }
          }
        }
      }
    }
  }
  JOINT RightUpLeg
  {
    OFFSET -9.12445 -6.6564 -0.0553779
    CHANNELS 6 Xposition Yposition Zposition Zrotation Xrotation Yrotation
    JOINT RightLeg
    {
      OFFSET -0.24468 -40.5954 -0.514528
      CHANNELS 6 Xposition Yposition Zposition Zrotation Xrotation Yrotation
      JOINT RightFoot
      {
        OFFSET 0.244669 -42.0479 -2.06023
        CHANNELS 6 Xposition Yposition Zposition Zrotation Xrotation Yrotation
        JOINT RightToeBase
        {
          OFFSET -0.37336 -10.4922 12.6407
          CHANNELS 6 Xposition Yposition Zposition Zrotation Xrotation Yrotation
          End Site
          {
            OFFSET 0 0 9.99252
          }
        }
      }
    }
  }
  JOINT LeftUpLeg
  {
    OFFSET 9.12445 -6.6564 -0.0553779
    CHANNELS 6 Xposition Yposition Zposition Zrotation Xrotation Yrotation
    JOINT LeftLeg
    {
      OFFSET 0.24468 -40.5954 -0.517041
      CHANNELS 6 Xposition Yposition Zposition Zrotation Xrotation Yrotation
      JOINT LeftFoot
      {
        OFFSET -0.24467 -42.048 -2.05764
        CHANNELS 6 Xposition Yposition Zposition Zrotation Xrotation Yrotation
        JOINT LeftToeBase
        {
          OFFSET 0.37336 -10.4922 12.6407
          CHANNELS 6 Xposition Yposition Zposition Zrotation Xrotation Yrotation
          End Site
          {
            OFFSET 0 0 9.99252
          }
        }
      }
    }
  }
}
MOTION
Frames:	4
Frame Time:	0.0333333
5.28733 91.5314 -24.4144 -5.21814 -5.93689 -60.3793 5.64832e-007 9.92346 -1.22733 9.49672 6.66975 15.2036 -0.000138865 11.6454 -1.42234 -8.89882 0.603995 2.29799 9.14407e-005 13.3602 -1.62646 -8.88637 0.914807 2.26843 2.52021e-005 15.0325 0.792905 -6.95901 0.653031 -8.21815 2.37075e-006 10.3218 3.14243 7.64258 0.334222 -51.6266 6.10582 9.11042 0.705551 1.04085 -0.0129255 3.57457 12.655 -0.265934 -2.60092 -33.6764 15.6099 2.70538 27.4047 3.91267e-005 6.58811e-006 3.03983e-005 -2.69757e-006 -95.0713 27.6145 2.89518e-005 1.96466e-005 63.4935 36.8154 -21.2761 12.7755 1.3342e-005 2.04185e-005 19.1605 -0.383024 -2.26904 3.61397 2.66014e-006 2.46236e-006 -2.71566 -0.00775895 0.327468 3.45976 5.43247e-007 -2.64197e-005 -7.11864 -0.0532754 0.856548 3.78881 -2.167 3.00309 23.3639 -0.0263603 15.1708 3.67544 -2.12201 2.12201 1.24669 4.86939 15.0648 3.39436 -1.95974 1.95979 2.93734 0.105024 5.77632 12.2666 -0.231669 2.82206 26.2753 -0.71461 -3.06105 3.89197 1.68687e-006 3.87215e-005 -2.69673e-005 -1.8622e-006 7.74652e-006 3.41516 5.74911e-007 -8.77053e-006 -2.78867 -0.00818473 0.336251 12.147 0.00989498 -2.21663 10.4424 -0.114486 -1.25279 3.60119 1.51294e-006 3.51122e-005 -7.29547 -0.0559539 0.877709 3.30732 4.53174e-006 -2.08933e-005 -11.7213 -0.144143 1.4042 10.9082 -0.226365 -4.72582 4.01101 0.00137842 3.63231 4.13665 2.29995e-006 2.68984e-005 -11.7145 0.674274 -2.62809 2.59484 5.93904e-008 -3.6009e-005 -15.1889 -0.241494 1.81112 -6.1057 9.11051 0.705563 -6.69331 0.461958 2.94925 -12.655 -0.266021 -2.6009 23.1628 -42.1071 4.01782 -27.4047 3.28841e-005 5.27564e-006 -1.77362e-006 5.93942e-006 40.0224 -27.6145 2.26615e-005 1.83241e-005 -56.5125 -3.93057 -6.47755 -12.7755 8.94577e-006 1.80116e-005 -14.5645 -0.22433 1.75541 -3.61397 2.7565e-006 3.08034e-006 6.07952 -0.0392602 -0.739204 -3.45976 -1.97218e-007 -2.64579e-005 15.5673 -0.256102 -1.87342 -3.78881 -2.167 3.00309 -24.1367 -2.36626 1.64961 -3.67544 -2.12201 2.12201 -0.546969 5.20038 -13.3317 -3.39436 -1.95975 1.95979 -3.12917 0.230625 -10.4508 -12.2666 -0.231673 2.82206 -23.3633 -0.572592 2.76886 -3.89197 -7.20555e-008 3.7513e-005 1.71602 -0.00312494 -0.209004 -3.41516 2.52991e-007 -8.60584e-006 11.5811 -0.142115 -1.4013 -12.147 0.0098909 -2.21663 -3.75242 -0.0149602 0.456783 -3.60119 2.38565e-007 3.4867e-005 12.0165 -0.152974 -1.45324 -3.30732 3.76018e-006 -2.11146e-005 20.3164 -0.434391 -2.42403 -10.9082 -0.226369 -4.72582 4.93145 -0.0258284 -0.599988 -4.13665 4.31063e-007 2.56096e-005 16.7964 -0.297864 -2.01728 -2.59484 -9.57149e-007 -3.66612e-005 24.0526 -0.606388 -2.84583 -9.12445 -6.6564 -0.0553779 -19.7845 -9.36103 -6.93039 -0.24468 -40.5954 -0.514528 4.85087 43.5974 -13.6842 0.244669 -42.0479 -2.06023 16.938 -21.096 -3.24185 -0.37336 -10.4922 12.6407 1.17231e-006 -1.23665 2.32829e-005 9.12445 -6.6564 -0.0553779 15.7264 -4.27152 -2.05498 0.24468 -40.5954 -0.517041 4.12157 25.9186 -11.544 -0.24467 -42.048 -2.05764 -20.3135 -17.3315 -15.4543 0.37336 -10.4922 12.6407 9.60757e-007 -1.45776 3.11246e-006 
3.23856 90.8241 -26.2373 -6.25797 -4.62407 -58.6667 5.64832e-007 9.92346 -1.22733 8.81638 6.06111 13.985 -0.000138865 11.6454 -1.42234 -8.61965 0.524489 2.10084 9.14407e-005 13.3602 -1.62646 -8.60932 0.799102 2.07146 2.52021e-005 15.0325 0.792905 -6.21094 1.03747 -8.24639 2.37075e-006 10.3218 3.14243 10.2082 0.581138 -51.6241 6.10582 9.11042 0.705551 -0.686497 -0.066477 3.93271 12.655 -0.265934 -2.60092 -36.8069 6.35933 4.34465 27.4047 3.91267e-005 6.58811e-006 -1.52589e-005 1.59217e-015 -103.115 27.6145 2.89518e-005 1.96466e-005 53.2624 40.2127 -10.5274 12.7755 1.3342e-005 2.04185e-005 23.1889 -0.558674 -2.7225 3.61397 2.66014e-006 2.46236e-006 -2.30509 -0.00559704 0.27797 3.45976 5.43247e-007 -2.64197e-005 -6.48322 -0.0441988 0.780438 3.78881 -2.167 3.00309 23.2378 -0.166842 14.1091 3.67544 -2.12201 2.12201 1.21274 4.806 14.5334 3.39436 -1.95974 1.95979 2.9133 0.0651 5.5109 12.2666 -0.231669 2.82206 29.7143 -0.909596 -3.42788 3.89197 1.68687e-006 3.87215e-005 -2.16262e-005 4.96035e-006 1.84331e-005 3.41516 5.74911e-007 -8.77053e-006 -2.01103 -0.00426123 0.242551 12.147 0.00989498 -2.21663 15.2361 -0.242994 -1.81661 3.60119 1.51294e-006 3.51122e-005 -5.99696 -0.0378206 0.722087 3.30732 4.53174e-006 -2.08933e-005 -11.6111 -0.141455 1.39119 10.9082 -0.226365 -4.72582 9.45256 -0.0755379 2.98065 4.13665 2.29995e-006 2.68984e-005 -10.1608 0.600178 -2.83297 2.59484 5.93904e-008 -3.6009e-005 -15.1631 -0.240675 1.80811 -6.1057 9.11051 0.705563 -4.51883 0.55234 2.33627 -12.655 -0.266021 -2.6009 24.869 -42.4901 2.39364 -27.4047 3.28841e-005 5.27564e-006 -1.07372e-005 -3.79026e-006 45.1061 -27.6145 2.26615e-005 1.83241e-005 -54.8474 -2.77746 -5.25514 -12.7755 8.94577e-006 1.80116e-005 -16.3335 -0.281771 1.96321 -3.61397 2.7565e-006 3.08034e-006 4.46719 -0.0212075 -0.543628 -3.45976 -1.97218e-007 -2.64579e-005 14.4995 -0.222353 -1.74775 -3.78881 -2.167 3.00309 -24.1064 -2.38555 1.84212 -3.67544 -2.12201 2.12201 -0.540827 5.18936 -13.2357 -3.39436 -1.95975 1.95979 -3.11925 0.21284 -10.3338 -12.2666 -0.231673 2.82206 -25.0856 -0.658779 2.96043 -3.89197 -7.20555e-008 3.7513e-005 5.69205e-005 1.05977e-006 -6.32266e-006 -3.41516 2.52991e-007 -8.60584e-006 10.7342 -0.122131 -1.30006 -12.147 0.0098909 -2.21663 -5.59341 -0.0332352 0.680304 -3.60119 2.38565e-007 3.4867e-005 10.7889 -0.123377 -1.30662 -3.30732 3.76018e-006 -2.11146e-005 18.8021 -0.372592 -2.25007 -10.9082 -0.226369 -4.72582 3.02089 -0.00970339 -0.367819 -4.13665 4.31063e-007 2.56096e-005 15.9013 -0.267143 -1.9126 -2.59484 -9.57149e-007 -3.66612e-005 22.1643 -0.516016 -2.63402 -9.12445 -6.6564 -0.0553779 -16.9318 -8.83058 -7.27109 -0.24468 -40.5954 -0.514528 7.22085 45.928 -15.8677 0.244669 -42.0479 -2.06023 15.4655 -24.1352 -3.73819 -0.37336 -10.4922 12.6407 -1.263e-006 -2.67829 3.77938e-006 9.12445 -6.6564 -0.0553779 19.925 -5.06354 5.28724 0.24468 -40.5954 -0.517041 5.60189 28.7759 -12.8183 -0.24467 -42.048 -2.05764 -22.0451 -16.9577 -11.3277 0.37336 -10.4922 12.6407 -1.22593e-006 -1.11041 1.31389e-005 
1.43518 90.0339 -27.8232 -7.98198 -3.91706 -57.9799 5.64832e-007 9.92346 -1.22733 7.48329 6.64877 12.3074 -0.000138865 11.6454 -1.42234 -7.68589 0.219688 1.84765 9.14407e-005 13.3602 -1.62646 -7.68862 0.438495 1.80495 2.52021e-005 15.0325 0.792905 -5.51428 1.2886 -7.88167 2.37075e-006 10.3218 3.14243 11.6857 -0.692287 -49.2543 6.10582 9.11042 0.705551 -2.6692 0.0978134 2.84574 12.655 -0.265934 -2.60092 -41.0805 1.07525 4.37352 27.4047 3.91267e-005 6.58811e-006 -1.6673e-005 -9.18273e-006 -107.512 27.6145 2.89518e-005 1.96466e-005 44.1555 38.4338 -1.55055 12.7755 1.3342e-005 2.04185e-005 24.9403 -0.644921 -2.91565 3.61397 2.66014e-006 2.46236e-006 -1.73524 -0.00317202 0.209281 3.45976 5.43247e-007 -2.64197e-005 -5.46663 -0.031426 0.658439 3.78881 -2.167 3.00309 23.1397 -0.272532 13.298 3.67544 -2.12201 2.12201 1.18642 4.75777 14.1275 3.39436 -1.95974 1.95979 2.89479 0.0346736 5.30815 12.2666 -0.231669 2.82206 29.8906 -0.920174 -3.44636 3.89197 1.68687e-006 3.87215e-005 -3.13302e-005 1.15475e-006 -4.53726e-007 3.41516 5.74911e-007 -8.77053e-006 -0.890225 -0.000849464 0.107373 12.147 0.00989498 -2.21663 18.9598 -0.375115 -2.24613 3.60119 1.51294e-006 3.51122e-005 -4.24653 -0.0189658 0.511786 3.30732 4.53174e-006 -2.08933e-005 -11.1324 -0.130064 1.33457 10.9082 -0.226365 -4.72582 14.7903 -0.210746 2.35116 4.13665 2.29995e-006 2.68984e-005 -7.92212 0.483685 -3.12459 2.59484 5.93904e-008 -3.6009e-005 -14.784 -0.22886 1.7639 -6.1057 9.11051 0.705563 -1.37085 0.643135 1.61073 -12.655 -0.266021 -2.6009 27.7034 -44.6502 3.29582 -27.4047 3.28841e-005 5.27564e-006 -1.31312e-006 5.00076e-008 52.7911 -27.6145 2.26615e-005 1.83241e-005 -53.245 -1.45213 -2.71253 -12.7755 8.94577e-006 1.80116e-005 -17.2549 -0.314221 2.07072 -3.61397 2.7565e-006 3.08034e-006 3.99323 -0.0169385 -0.48605 -3.45976 -1.97218e-007 -2.64579e-005 13.5208 -0.193468 -1.63201 -3.78881 -2.167 3.00309 -24.0439 -2.4249 2.23772 -3.67544 -2.12201 2.12201 -0.52811 5.16676 -13.0387 -3.39436 -1.95975 1.95979 -3.0987 0.176408 -10.0934 -12.2666 -0.231673 2.82206 -24.9208 -0.65028 2.9422 -3.89197 -7.20555e-008 3.7513e-005 3.51687e-005 -2.61431e-006 -3.37246e-006 -3.41516 2.52991e-007 -8.60584e-006 9.46653 -0.0950601 -1.148 -12.147 0.0098909 -2.21663 -7.87225 -0.0657765 0.955986 -3.60119 2.38565e-007 3.4867e-005 10.1805 -0.109903 -1.23371 -3.30732 3.76018e-006 -2.11146e-005 17.8287 -0.33529 -2.13742 -10.9082 -0.226369 -4.72582 -0.366295 -0.000147078 0.044619 -4.13665 4.31063e-007 2.56096e-005 15.2355 -0.245364 -1.83443 -2.59484 -9.57149e-007 -3.66612e-005 21.1653 -0.471033 -2.52082 -9.12445 -6.6564 -0.0553779 -14.0908 -8.33808 -5.85216 -0.24468 -40.5954 -0.514528 9.91616 48.7576 -18.2615 0.244669 -42.0479 -2.06023 14.3199 -26.1751 -4.67266 -0.37336 -10.4922 12.6407 1.71775e-006 -3.89883 2.48052e-005 9.12445 -6.6564 -0.0553779 23.6427 -5.17353 12.9244 0.24468 -40.5954 -0.517041 8.55081 32.0074 -14.9214 -0.24467 -42.048 -2.05764 -23.0897 -16.7586 -9.33827 0.37336 -10.4922 12.6407 -4.76623e-006 -0.37376 7.56939e-006 
-0.0113653 89.2312 -29.1639 -10.4338 -3.88457 -58.0291 5.64832e-007 9.92346 -1.22733 6.18342 8.46072 10.1243 -0.000138865 11.6454 -1.42234 -6.35911 0.393391 1.5959 9.14407e-005 13.3602 -1.62646 -6.36665 0.550159 1.52622 2.52021e-005 15.0325 0.792905 -4.84448 0.370706 -7.15772 2.37075e-006 10.3218 3.14243 11.7952 -2.82103 -44.0268 6.10582 9.11042 0.705551 -5.11402 0.568984 0.291717 12.655 -0.265934 -2.60092 -42.6908 -0.690825 0.397813 27.4047 3.91267e-005 6.58811e-006 -3.14029e-005 -5.12202e-006 -109.614 27.6145 2.89518e-005 1.96466e-005 40.3793 36.0321 2.35915 12.7755 1.3342e-005 2.04185e-005 24.2258 -0.609022 -2.83717 3.61397 2.66014e-006 2.46236e-006 -1.059 -0.00116145 0.127761 3.45976 5.43247e-007 -2.64197e-005 -4.14351 -0.018059 0.499383 3.78881 -2.167 3.00309 23.111 -0.302909 13.0628 3.67544 -2.12201 2.12201 1.1787 4.74384 14.0099 3.39436 -1.95974 1.95979 2.88942 0.0258772 5.2494 12.2666 -0.231669 2.82206 27.3214 -0.771583 -3.17386 3.89197 1.68687e-006 3.87215e-005 -2.90321e-005 6.15054e-006 1.00909e-005 3.41516 5.74911e-007 -8.77053e-006 0.469967 -0.000246592 -0.0566977 12.147 0.00989498 -2.21663 20.5443 -0.439749 -2.42617 3.60119 1.51294e-006 3.51122e-005 -2.53673 -0.00677677 0.305896 3.30732 4.53174e-006 -2.08933e-005 -10.0109 -0.105243 1.20155 10.9082 -0.226365 -4.72582 18.2378 -0.328983 1.9523 4.13665 2.29995e-006 2.68984e-005 -5.20617 0.327125 -3.47203 2.59484 5.93904e-008 -3.6009e-005 -14.0073 -0.205562 1.67312 -6.1057 9.11051 0.705563 1.14504 0.631999 0.627664 -12.655 -0.266021 -2.6009 32.4393 -47.1791 6.9814 -27.4047 3.28841e-005 5.27564e-006 -1.61182e-006 -7.43522e-007 60.8426 -27.6145 2.26615e-005 1.83241e-005 -51.687 -0.424293 -0.288764 -12.7755 8.94577e-006 1.80116e-005 -18.129 -0.346599 2.17224 -3.61397 2.7565e-006 3.08034e-006 3.5791 -0.0136203 -0.435709 -3.45976 -1.97218e-007 -2.64579e-005 12.523 -0.16607 -1.51354 -3.78881 -2.167 3.00309 -23.9854 -2.46113 2.60622 -3.67544 -2.12201 2.12201 -0.516198 5.14575 -12.8551 -3.39436 -1.95975 1.95979 -3.0795 0.142513 -9.86946 -12.2666 -0.231673 2.82206 -23.9404 -0.600822 2.83333 -3.89197 -7.20555e-008 3.7513e-005 5.8276e-005 1.42019e-006 -1.08894e-005 -3.41516 2.52991e-007 -8.60584e-006 8.09003 -0.0694712 -0.982276 -12.147 0.0098909 -2.21663 -11.0587 -0.129619 1.3389 -3.60119 2.38565e-007 3.4867e-005 9.42471 -0.0942171 -1.14299 -3.30732 3.76018e-006 -2.11146e-005 17.1578 -0.310723 -2.05943 -10.9082 -0.226369 -4.72582 -5.43654 -0.0313957 0.661271 -4.13665 4.31063e-007 2.56096e-005 14.2816 -0.215755 -1.72201 -2.59484 -9.57149e-007 -3.66612e-005 20.7174 -0.451522 -2.46982 -9.12445 -6.6564 -0.0553779 -11.518 -6.79678 -4.26701 -0.24468 -40.5954 -0.514528 12.262 50.8603 -20.3564 0.244669 -42.0479 -2.06023 13.2315 -28.1528 -5.30409 -0.37336 -10.4922 12.6407 5.86927e-007 -4.31984 2.35212e-006 9.12445 -6.6564 -0.0553779 26.9629 -4.09598 18.0981 0.24468 -40.5954 -0.517041 11.3119 34.4589 -16.6118 -0.24467 -42.048 -2.05764 -23.7321 -16.5299 -9.63437 0.37336 -10.4922 12.6407 -3.20008e-006 -0.287253 -1.84824e-010 
